<?xml version="1.0" encoding="UTF-8"?>
<svg id="_Слой_1" data-name="Слой 1" xmlns="http://www.w3.org/2000/svg" viewBox="0 0 1000 1000">
  <defs>
    <style>
      .cls-1 {
        fill: #201600;
      }

      .cls-2 {
        fill: #5a85c4;
      }
    </style>
  </defs>
  <path class="cls-2" d="m676.21,860.43c-53.78,0-103.74-8.81-149.86-26.39-46.15-17.58-86.11-42.64-119.98-75.17-33.85-32.51-60.22-70.68-79.14-114.49-18.92-43.82-28.38-91.93-28.38-144.37s9.46-100.58,28.38-144.37c18.92-43.82,45.46-81.98,79.65-114.51,34.17-32.51,74.32-57.57,120.47-75.17,46.12-17.58,96.08-26.37,149.86-26.37,60.39,0,115.14,10.45,164.28,31.36,45.76,19.48,84.62,47.48,116.57,83.97,3.91,4.47,3.48,11.26-.9,15.27l-88.54,80.94c-4.43,4.05-11.32,3.82-15.39-.58-21.46-23.23-45.45-41.12-71.98-53.64-29.53-13.94-61.58-20.91-96.08-20.91-32.53,0-62.41,5.47-89.62,16.43-27.23,10.94-50.78,26.37-70.7,46.29-19.91,19.91-35.33,43.49-46.29,70.7-10.96,27.23-16.43,57.43-16.43,90.61s5.47,63.38,16.43,90.61c10.96,27.23,26.37,50.76,46.29,70.68s43.47,35.35,70.7,46.31c27.21,10.96,57.08,16.43,89.62,16.43,34.5,0,66.54-7.13,96.08-21.41,26.53-12.81,50.52-30.86,71.98-54.13,4.07-4.41,10.97-4.64,15.4-.59l88.54,80.95c4.38,4.01,4.81,10.8.91,15.26-31.95,36.52-70.81,64.67-116.57,84.46-49.14,21.23-104.22,31.86-165.28,31.86Z"/>
  <path class="cls-1" d="m521.25,847.43c-47.69-18.17-89.68-44.49-124.81-78.23-14.53-13.95-27.78-29.02-39.73-45.09-.66-.88-1.69-1.41-2.79-1.41h-148.89c-1.93,0-3.5-1.57-3.5-3.5V145.31c0-3.17-2.57-5.75-5.75-5.75H45.01c-3.17,0-5.75,2.57-5.75,5.75v705.32c0,1.93,1.57,3.5,3.5,3.5h477.25c3.85,0,4.83-5.33,1.23-6.7Z"/>
</svg>